<svg xmlns="http://www.w3.org/2000/svg" xmlns:xlink="http://www.w3.org/1999/xlink" viewBox="0 0 448.55 180.17"><defs><style>.cls-1{fill:url(#Degradado_sin_nombre_29);}.cls-2{fill:#e5ecff;}.cls-3{fill:#a6b4cc;}.cls-4{fill:none;}</style><linearGradient id="Degradado_sin_nombre_29" x1="152.21" y1="144.9" x2="268.3" y2="28.8" gradientUnits="userSpaceOnUse"><stop offset="0" stop-color="#3b82f6"/><stop offset="0.36" stop-color="#2e65d7"/><stop offset="0.76" stop-color="#224aba"/><stop offset="0.99" stop-color="#1e40af"/></linearGradient></defs><g id="Capa_2" data-name="Capa 2"><g id="Capa_1-2" data-name="Capa 1"><path class="cls-1" d="M224.44,26.83c-.09,25.88-39.53,26-39.65,0C185.24.77,224,.8,224.44,26.83Zm52.8,97.76L234,81.37h0l43.44-43.43c-.93-.92-10.52-10.52-11.11-11.11H226.69L238,38.11h-.39L204.48,71.2c-6.3-6.3-26.47-26.48-33.09-33.09H131.73l43.32,43.32L131.9,124.59h39.55l23.38-23.38,1.77-1.77L178.54,81.37h15.77l.15-.15,54.64,54.64h39.41Z"/><path class="cls-2" d="M287.65,124.59v-78h27.78v78Z"/><path class="cls-2" d="M374.91,126.71c-19.72-.21-44.48-3.21-48-24.89h27.77c2.12,10.51,46.57,10.6,36.73-3.64-13.88-5.16-44.17-3.41-54.64-12.59-8.19-5.42-10-17.8-4.93-26,8.63-12.92,25.44-14.84,41.05-15.1,20.09.21,41.25,3,44.62,23.83H389.79c-3.14-8.66-24.7-7.47-31.11-3.12-4.43,4.33.52,8.24,5.61,8.58,15.43,3,42.84,1.2,53.42,14.49C433.82,116.47,398.34,128.27,374.91,126.71Z"/><path class="cls-2" d="M118.29,57.67C102.55,37.32,35,38.45,30.43,69.5H58.05c2.69-10.27,36.5-11.17,37.48,1.07-.13,3.73-3.15,5.11-7,5.46C77.13,77.71,51,78.46,41.35,83.16c-16.22,5.42-19.86,27.72-6,37.33q8.56,6.23,23.75,6.23c15.24,0,29.26-4.09,37.79-16.45v14.32h26.4C121.88,112.12,127.41,67.4,118.29,57.67ZM95.53,90.14C95,106.17,71,112.28,58.88,106.3,51.71,101.68,56.17,93,64.27,93,71.68,92,89,90.56,95.53,88.27Z"/><path class="cls-3" d="M337.72,147.47a3.57,3.57,0,0,1,.23,4.1,3.65,3.65,0,0,1-1.58,1.33,5.5,5.5,0,0,1-2.4.49h-5.52v-13.8h5.26a5.59,5.59,0,0,1,2.42.48,3.49,3.49,0,0,1,1.53,1.28,3.27,3.27,0,0,1,.52,1.8,3.09,3.09,0,0,1-.64,2,3.64,3.64,0,0,1-1.71,1.17A3.14,3.14,0,0,1,337.72,147.47Zm-7-2.08h2.8a2.69,2.69,0,0,0,1.74-.51,1.77,1.77,0,0,0,.62-1.46,1.84,1.84,0,0,0-.62-1.46,2.64,2.64,0,0,0-1.74-.52h-2.8Zm4.87,5.6a1.94,1.94,0,0,0,.65-1.55,2,2,0,0,0-.69-1.61,2.74,2.74,0,0,0-1.85-.59h-3v4.3h3.06A2.72,2.72,0,0,0,335.58,151Z"/><path class="cls-3" d="M350.8,142.45l-6.71,16.08h-2.34l2.22-5.32-4.3-10.76h2.52l3.07,8.34,3.2-8.34Z"/><path class="cls-3" d="M359.94,151.56h4.66v1.83h-6.93v-13.8h2.27Z"/><path class="cls-3" d="M368.75,139.59v13.8h-2.26v-13.8Z"/><path class="cls-3" d="M383.07,153.39H380.8L374,143.09v10.3h-2.26V139.57H374l6.81,10.29V139.57h2.27Z"/><path class="cls-3" d="M397.06,139.59v13.8H394.8v-6h-6.49v6H386v-13.8h2.27v5.92h6.49v-5.92Z"/><path class="cls-3" d="M402.3,141.42v4.05h4.77v1.84H402.3v4.23h5.37v1.85H400V139.57h7.63v1.85Z"/><path class="cls-3" d="M417.61,153.39l-3.17-5.52h-1.73v5.52h-2.27v-13.8h4.77a5.91,5.91,0,0,1,2.69.56,3.87,3.87,0,0,1,1.65,1.49,4.06,4.06,0,0,1,.54,2.08,4.13,4.13,0,0,1-.78,2.45,3.94,3.94,0,0,1-2.41,1.5l3.41,5.72Zm-4.9-7.33h2.5a2.64,2.64,0,0,0,1.92-.63,2.28,2.28,0,0,0,.64-1.71,2.24,2.24,0,0,0-.63-1.68,2.74,2.74,0,0,0-1.93-.6h-2.5Z"/><rect class="cls-4" width="448.55" height="180.17"/></g></g></svg>
